<?xml version="1.0" encoding="UTF-8" standalone="no"?>
<!-- Created with Inkscape (http://www.inkscape.org/) -->

<svg
   width="1280"
   height="640"
   viewBox="0 0 338.66666 169.33333"
   version="1.1"
   id="svg5101"
   inkscape:version="1.2 (dc2aedaf03, 2022-05-15)"
   sodipodi:docname="github-banner.svg"
   xml:space="preserve"
   inkscape:export-filename="..\..\..\..\..\..\Users\Abdera7mane\Desktop\github-banner.png"
   inkscape:export-xdpi="96"
   inkscape:export-ydpi="96"
   xmlns:inkscape="http://www.inkscape.org/namespaces/inkscape"
   xmlns:sodipodi="http://sodipodi.sourceforge.net/DTD/sodipodi-0.dtd"
   xmlns="http://www.w3.org/2000/svg"
   xmlns:svg="http://www.w3.org/2000/svg"><sodipodi:namedview
     id="namedview5103"
     pagecolor="#ffffff"
     bordercolor="#111111"
     borderopacity="1"
     inkscape:showpageshadow="0"
     inkscape:pageopacity="0"
     inkscape:pagecheckerboard="1"
     inkscape:deskcolor="#d1d1d1"
     inkscape:document-units="px"
     showgrid="false"
     inkscape:zoom="0.35429688"
     inkscape:cx="664.6968"
     inkscape:cy="239.9118"
     inkscape:window-width="1366"
     inkscape:window-height="716"
     inkscape:window-x="-8"
     inkscape:window-y="-8"
     inkscape:window-maximized="1"
     inkscape:current-layer="layer1"
     showguides="true"><sodipodi:guide
       position="317.60237,148.44434"
       orientation="0,-1"
       id="guide7965"
       inkscape:locked="false" /><sodipodi:guide
       position="317.60237,148.44434"
       orientation="1,0"
       id="guide7967"
       inkscape:locked="false" /><sodipodi:guide
       position="21.166667,21.166666"
       orientation="0,-1"
       id="guide7971"
       inkscape:locked="false" /><sodipodi:guide
       position="21.166667,20.55401"
       orientation="1,0"
       id="guide8025"
       inkscape:locked="false" /><inkscape:grid
       type="xygrid"
       id="grid2228" /></sodipodi:namedview><defs
     id="defs5098"><inkscape:path-effect
       effect="powerstroke"
       id="path-effect6605"
       is_visible="true"
       lpeversion="1"
       offset_points="0.042801097,0.91953599 | 0.33793631,0.95354081 | 0.79930935,0.46327698"
       not_jump="false"
       sort_points="true"
       interpolator_type="CentripetalCatmullRom"
       interpolator_beta="0.2"
       start_linecap_type="zerowidth"
       linejoin_type="round"
       miter_limit="4"
       scale_width="1"
       end_linecap_type="zerowidth" /><inkscape:path-effect
       effect="powerstroke"
       id="path-effect6601"
       is_visible="true"
       lpeversion="1"
       offset_points="0.042801097,0.91953599 | 0.33793631,0.95354081 | 0.79930935,0.46327698"
       not_jump="false"
       sort_points="true"
       interpolator_type="CentripetalCatmullRom"
       interpolator_beta="0.2"
       start_linecap_type="zerowidth"
       linejoin_type="round"
       miter_limit="4"
       scale_width="1"
       end_linecap_type="zerowidth" /><inkscape:path-effect
       effect="powerstroke"
       id="path-effect9894-0-0-3-68"
       is_visible="true"
       lpeversion="1"
       offset_points="0.042801097,2.7586065 | 0.33793631,2.8606209 | 0.79930935,1.3898302"
       not_jump="false"
       sort_points="true"
       interpolator_type="CentripetalCatmullRom"
       interpolator_beta="0.2"
       start_linecap_type="zerowidth"
       linejoin_type="round"
       miter_limit="4"
       scale_width="1"
       end_linecap_type="zerowidth" /><inkscape:path-effect
       effect="powerstroke"
       id="path-effect9904-1-0-6-4"
       is_visible="true"
       lpeversion="1"
       offset_points="0.042801097,2.7586065 | 0.33793631,2.8606209 | 0.79930935,1.3898302"
       not_jump="false"
       sort_points="true"
       interpolator_type="CentripetalCatmullRom"
       interpolator_beta="0.2"
       start_linecap_type="zerowidth"
       linejoin_type="round"
       miter_limit="4"
       scale_width="1"
       end_linecap_type="zerowidth" /><inkscape:path-effect
       effect="powerstroke"
       id="path-effect9894-0-0-3-68-6"
       is_visible="true"
       lpeversion="1"
       offset_points="0.042801097,2.7586065 | 0.33793631,2.8606209 | 0.79930935,1.3898302"
       not_jump="false"
       sort_points="true"
       interpolator_type="CentripetalCatmullRom"
       interpolator_beta="0.2"
       start_linecap_type="zerowidth"
       linejoin_type="round"
       miter_limit="4"
       scale_width="1"
       end_linecap_type="zerowidth" /><inkscape:path-effect
       effect="powerstroke"
       id="path-effect9904-1-0-6-4-5"
       is_visible="true"
       lpeversion="1"
       offset_points="0.042801097,2.7586065 | 0.33793631,2.8606209 | 0.79930935,1.3898302"
       not_jump="false"
       sort_points="true"
       interpolator_type="CentripetalCatmullRom"
       interpolator_beta="0.2"
       start_linecap_type="zerowidth"
       linejoin_type="round"
       miter_limit="4"
       scale_width="1"
       end_linecap_type="zerowidth" /><inkscape:path-effect
       effect="powerstroke"
       id="path-effect9894-0-0-3-68-6-0"
       is_visible="true"
       lpeversion="1"
       offset_points="0.042801097,0.91953552 | 0.33793631,0.95354032 | 0.79930935,0.46327674"
       not_jump="false"
       sort_points="true"
       interpolator_type="CentripetalCatmullRom"
       interpolator_beta="0.2"
       start_linecap_type="zerowidth"
       linejoin_type="round"
       miter_limit="4"
       scale_width="1"
       end_linecap_type="zerowidth" /><inkscape:path-effect
       effect="powerstroke"
       id="path-effect9904-1-0-6-4-5-4"
       is_visible="true"
       lpeversion="1"
       offset_points="0.042801097,0.91953552 | 0.33793631,0.95354032 | 0.79930935,0.46327674"
       not_jump="false"
       sort_points="true"
       interpolator_type="CentripetalCatmullRom"
       interpolator_beta="0.2"
       start_linecap_type="zerowidth"
       linejoin_type="round"
       miter_limit="4"
       scale_width="1"
       end_linecap_type="zerowidth" /><pattern
       id="EMFhbasepattern"
       patternUnits="userSpaceOnUse"
       width="6"
       height="6"
       x="0"
       y="0" /><inkscape:path-effect
       effect="powerstroke"
       id="path-effect9894-0-0-3-68-6-0-8"
       is_visible="true"
       lpeversion="1"
       offset_points="0.042801097,0.91953552 | 0.33793631,0.95354032 | 0.79930935,0.46327674"
       not_jump="false"
       sort_points="true"
       interpolator_type="CentripetalCatmullRom"
       interpolator_beta="0.2"
       start_linecap_type="zerowidth"
       linejoin_type="round"
       miter_limit="4"
       scale_width="1"
       end_linecap_type="zerowidth" /><inkscape:path-effect
       effect="powerstroke"
       id="path-effect9904-1-0-6-4-5-4-7"
       is_visible="true"
       lpeversion="1"
       offset_points="0.042801097,0.91953552 | 0.33793631,0.95354032 | 0.79930935,0.46327674"
       not_jump="false"
       sort_points="true"
       interpolator_type="CentripetalCatmullRom"
       interpolator_beta="0.2"
       start_linecap_type="zerowidth"
       linejoin_type="round"
       miter_limit="4"
       scale_width="1"
       end_linecap_type="zerowidth" /></defs><g
     inkscape:label="Layer 1"
     inkscape:groupmode="layer"
     id="layer1"><rect
       style="fill:#ffffff;fill-opacity:1;stroke:none;stroke-width:3.74178;stroke-linecap:round;stroke-linejoin:round"
       id="rect9579-4-2-8-3-0"
       width="338.66666"
       height="169.33333"
       x="7.0117185e-06"
       y="1.7529296e-06"
       inkscape:export-filename="..\..\desktop\godette_transparant.png"
       inkscape:export-xdpi="768"
       inkscape:export-ydpi="768" /><text
       xml:space="preserve"
       style="font-style:normal;font-variant:normal;font-weight:normal;font-stretch:normal;font-size:33.8667px;line-height:1.25;font-family:'Lilita One';-inkscape-font-specification:'Lilita One';text-align:start;text-anchor:start;fill:#414042;fill-opacity:1;stroke-width:0.264583"
       x="148.22551"
       y="96.503067"
       id="text9111-6"><tspan
         sodipodi:role="line"
         id="tspan9109-2"
         style="font-style:normal;font-variant:normal;font-weight:normal;font-stretch:normal;font-size:33.8667px;font-family:'Lilita One';-inkscape-font-specification:'Lilita One';text-align:start;text-anchor:start;fill:#414042;fill-opacity:1;stroke-width:0.264583"
         x="148.22551"
         y="96.503067">GODETTE</tspan></text><g
       id="g4501"><rect
         style="fill:none;fill-opacity:1;stroke:none;stroke-width:1.41111;stroke-linecap:round;stroke-linejoin:round"
         id="rect9579-4-2-8-3-6-2"
         width="90.311111"
         height="90.311111"
         x="58.835155"
         y="39.511105"
         inkscape:export-filename="..\..\desktop\godette_transparant.png"
         inkscape:export-xdpi="768"
         inkscape:export-ydpi="768" /><g
         id="g4455"><circle
           style="fill:#468cbf;fill-opacity:1;stroke:none;stroke-width:0.705553;stroke-linecap:round;stroke-linejoin:round;stroke-miterlimit:4;stroke-dasharray:none"
           id="circle1961-6-9"
           cx="100.55632"
           cy="46.613426"
           r="11.288889"
           transform="rotate(20.005625)" /><path
           id="path3334-3-5"
           style="fill:#468cbf;fill-opacity:1;stroke:none;stroke-width:0.705553;stroke-linecap:round;stroke-linejoin:round"
           d="m 114.13306,89.283764 c 2.58025,2.29639 4.78874,5.171707 6.50056,8.515687 2.38098,4.689349 5.83365,11.404419 3.417,18.288209 -0.85035,-2.72836 -1.04614,-5.89287 -2.36821,-8.49734 -1.59654,-3.11886 -3.04383,-5.28493 -4.42545,-6.70969 l -3.47737,-4.603559 z" /><circle
           style="fill:#468cbf;fill-opacity:1;stroke:none;stroke-width:0.705553;stroke-linecap:round;stroke-linejoin:round;stroke-miterlimit:4;stroke-dasharray:none"
           id="circle1187-6-4"
           cx="-94.828018"
           cy="117.75283"
           r="11.288889"
           transform="matrix(-0.93965904,0.3421124,0.3421124,0.93965904,0,0)" /><path
           id="path3338-5-8"
           style="fill:#468cbf;fill-opacity:1;stroke:none;stroke-width:0.705553;stroke-linecap:round;stroke-linejoin:round"
           d="m 93.424223,89.283764 c -2.58025,2.29639 -4.78874,5.171707 -6.50056,8.515687 -2.380981,4.689349 -5.833654,11.404419 -3.416997,18.288209 0.850343,-2.72836 1.046136,-5.89287 2.368206,-8.49734 1.596537,-3.11886 3.043834,-5.28493 4.425454,-6.70969 l 3.47737,-4.603559 z" /><path
           id="ellipse9856-3-3-5-8-6-0"
           style="fill:#f4d7d7;fill-opacity:1;stroke:none;stroke-width:0.705553;stroke-linecap:round;stroke-linejoin:round"
           d="m 103.99071,63.677425 c -8.094174,-0.146491 -16.445481,3.441629 -20.945538,10.370379 -3.978446,5.755024 -4.884271,12.997304 -4.35766,19.823907 0.188087,2.69944 0.69247,5.34594 0.893294,8.039609 1.649556,9.36256 10.375987,16.0564 19.433117,17.51316 10.247017,1.87576 21.949417,-2.2449 27.236097,-11.56 1.83578,-3.0827 2.44826,-6.69369 2.53344,-10.218875 1.29652,-7.956604 0.86007,-16.751831 -3.84721,-23.597801 -4.54538,-6.963939 -12.80657,-10.490306 -20.94554,-10.370379 z"
           sodipodi:nodetypes="ccccscccc" /><path
           id="path1963-0-0"
           style="fill:#25557b;fill-opacity:1;stroke:none;stroke-width:0.788833;stroke-linecap:round;stroke-linejoin:round;stroke-miterlimit:4;stroke-dasharray:none"
           d="m 86.382139,70.080131 c -7.134817,3.317573 -9.58068,12.91604 -7.840348,19.41105 0.01658,0 0.03237,-0.0017 0.04892,0 0.001,-7.724333 2.75009,-14.654777 7.818987,-19.38521 -0.0095,-0.0081 -0.018,-0.0171 -0.02757,-0.02517 z"
           sodipodi:nodetypes="ccccc" /><path
           id="circle1368-0-6"
           style="fill:#25557b;fill-opacity:1;stroke:none;stroke-width:0.788833;stroke-linecap:round;stroke-linejoin:round;stroke-miterlimit:4;stroke-dasharray:none"
           d="m 121.55037,70.083571 c -0.002,0.0017 -0.003,0.003 -0.005,0.0044 5.08418,4.731756 7.84544,11.669147 7.84552,19.40657 1.74033,-6.49501 -0.70554,-16.093477 -7.84035,-19.41105 z"
           sodipodi:nodetypes="cccc" /><path
           id="path37669-4-6"
           style="opacity:0.4;mix-blend-mode:soft-light;fill:#ffffff;fill-opacity:1;stroke-width:0.352777;stroke-linecap:round;stroke-linejoin:round"
           d="m 128.67345,66.939579 a 11.288889,11.288889 0 0 0 -3.14469,0.658354 11.288889,11.288889 0 0 0 -5.15282,3.819578 5.6444448,11.288889 60 0 0 0.3514,1.14376 5.6444448,11.288889 60 0 0 12.5987,-0.75618 5.6444448,11.288889 60 0 0 3.24081,-2.28376 11.288889,11.288889 0 0 0 -7.8934,-2.581752 z" /><path
           id="path40027-8-5-5-9-9-3"
           style="fill:#f1bebe;fill-opacity:1;stroke:none;stroke-width:0.705553;stroke-linecap:round;stroke-linejoin:round"
           d="m 103.99071,64.38298 c -8.837841,1.8e-5 -15.647361,3.508887 -19.980861,9.044747 l -0.01103,11.599634 0.228753,3.82164 c 3.082114,-4.161347 9.42007,-1.442437 18.192508,-1.126877 l 1.56787,-4.95233 0.31867,4.979547 c 9.43996,-0.0713 16.24265,-3.264817 19.46273,1.127567 l 0.23116,-3.860574 0.0413,0.234617 0.91467,-10.46757 C 120.70637,68.470897 113.53001,64.383015 103.99071,64.38298 Z" /><path
           id="ellipse37725-4-0"
           style="opacity:0.4;mix-blend-mode:soft-light;fill:#ffffff;fill-opacity:1;stroke-width:0.352777;stroke-linecap:round;stroke-linejoin:round"
           d="m 79.258716,66.936139 a 11.288889,11.288889 0 0 0 -7.888234,2.577605 11.288889,5.6444448 30 0 0 3.235634,2.291347 11.288889,5.6444448 30 0 0 12.59871,0.756196 11.288889,5.6444448 30 0 0 0.369657,-1.12619 11.288889,11.288889 0 0 0 -5.170737,-3.840604 11.288889,11.288889 0 0 0 -3.14503,-0.658354 z" /><path
           id="path9858-6-1-0-6-0-6"
           style="fill:#f1bebe;fill-opacity:1;stroke:none;stroke-width:0.705553;stroke-linecap:round;stroke-linejoin:round"
           d="m 120.974,83.323761 a 22.048614,25.723382 0 0 1 2.82119,5.118717 l 0.13402,-2.233787 a 24.694445,21.166668 0 0 0 -2.95521,-2.88493 z m -33.990691,0.08407 a 24.694445,21.166668 0 0 0 -2.90766,2.90421 l 0.127813,2.132523 a 22.048614,25.723382 0 0 1 2.779847,-5.036733 z m 37.303841,3.24046 1.41662,8.067373 -0.0913,0.0173 a 22.048614,25.723382 0 0 1 0.42685,4.98401 22.048614,25.723382 0 0 1 -2.54868,11.873856 24.694445,21.166668 0 0 0 5.19451,-12.902909 24.694445,21.166668 0 0 0 -4.39801,-12.039564 z m -40.600454,0.14194 a 24.694445,21.166668 0 0 0 -4.39043,11.897623 24.694445,21.166668 0 0 0 5.194516,12.902916 22.048614,25.723382 0 0 1 -2.548683,-11.873862 22.048614,25.723382 0 0 1 0.458543,-4.981257 l -0.105763,-0.02 z" /><path
           id="path9860-4-9-3-6-6-6"
           style="fill:#468cbf;fill-opacity:1;stroke:none;stroke-width:0.705553;stroke-linecap:round;stroke-linejoin:round"
           d="m 103.99071,62.971181 c -0.15198,0.0017 -0.30395,0.0039 -0.45579,0.0083 -0.15183,0.0044 -0.30345,0.01041 -0.45509,0.01826 -0.15165,0.0078 -0.30334,0.01746 -0.45475,0.02861 -0.15142,0.01111 -0.30258,0.02379 -0.45372,0.03823 -0.15115,0.01447 -0.3022,0.03046 -0.45303,0.04824 -0.15084,0.01776 -0.30152,0.03713 -0.452,0.05823 -0.15049,0.02108 -0.30087,0.04381 -0.45096,0.06821 -0.15009,0.02439 -0.29993,0.05052 -0.44959,0.07819 -0.14966,0.02769 -0.29902,0.05722 -0.448204,0.08819 -0.149187,0.03099 -0.298153,0.06359 -0.446833,0.09784 -0.148674,0.03427 -0.29698,0.06996 -0.445107,0.107491 -0.14812,0.03753 -0.296193,0.07701 -0.443727,0.117828 -0.147526,0.0408 -0.29476,0.08304 -0.441656,0.127123 -0.146897,0.04406 -0.29337,0.08978 -0.439597,0.137108 -0.146223,0.04733 -0.29202,0.09618 -0.437527,0.146772 -0.14551,0.05057 -0.290703,0.102924 -0.43546,0.15674 -0.144506,0.05373 -0.28843,0.109167 -0.432013,0.166052 -0.143587,0.0569 -0.286983,0.115323 -0.429603,0.175366 -0.142627,0.06004 -0.284537,0.121479 -0.42616,0.184644 -0.141624,0.06318 -0.282817,0.128023 -0.423404,0.19431 h 0.0279 c -10.57741,3.429688 -16.55357,13.089062 -16.553683,24.477752 0.01733,5.259157 0.0038,12.809863 5.291666,17.836293 -0.486286,-2.81614 -1.753966,-5.72225 -1.76389,-8.643063 0,-3.503716 0.301307,-6.091327 0.881947,-7.989163 l 0.9977,-5.682354 0.19017,3.17225 c 3.06824,-4.233616 9.42416,-1.488846 18.231781,-1.172016 l 1.56787,-4.95233 0.31867,4.979546 c 9.4779,-0.07158 16.29757,-3.291556 19.50165,1.179937 l 0.19224,-3.207387 1.02044,5.810854 c 0.30819,1.047113 0.52878,2.313217 0.66834,3.806487 l 0.0145,0.08199 -0.007,0.0017 c 0.10676,1.17535 0.1664,2.482957 0.1664,3.97081 -0.01,2.920799 -1.2776,5.826919 -1.76388,8.643059 4.95152,-4.7067 5.27432,-12.577126 5.29166,-17.836286 -1.2e-4,-11.40296 -5.9911,-21.072494 -16.59331,-24.490839 h 0.0396 c -0.17572,-0.08257 -0.35234,-0.162507 -0.52951,-0.240118 -0.17717,-0.07763 -0.35511,-0.153 -0.53364,-0.225655 -0.17854,-0.07267 -0.35761,-0.142804 -0.53744,-0.210502 -0.17983,-0.0677 -0.36018,-0.13298 -0.54122,-0.195686 -0.18105,-0.06269 -0.36283,-0.122838 -0.54501,-0.180516 -0.18218,-0.05768 -0.36488,-0.112713 -0.54812,-0.165365 -0.18324,-0.05265 -0.367,-0.102941 -0.55122,-0.150548 -0.18422,-0.04761 -0.36884,-0.09252 -0.55396,-0.135043 -0.18513,-0.04255 -0.37078,-0.08244 -0.55674,-0.119892 -0.18594,-0.03747 -0.37244,-0.07239 -0.55914,-0.10474 -0.18669,-0.03235 -0.37349,-0.06233 -0.56086,-0.08957 -0.18736,-0.02723 -0.37531,-0.05198 -0.56327,-0.07407 -0.18796,-0.0221 -0.37617,-0.04165 -0.56465,-0.05856 -0.18847,-0.01693 -0.37712,-0.03131 -0.56603,-0.04307 -0.18891,-0.01182 -0.37813,-0.02064 -0.56741,-0.02722 -0.18927,-0.0065 -0.37854,-0.01076 -0.56809,-0.01199 z" /><ellipse
           style="fill:#efa9a9;fill-opacity:1;stroke:none;stroke-width:0.705553;stroke-linecap:round;stroke-linejoin:round;stroke-miterlimit:4;stroke-dasharray:none"
           id="ellipse9862-8-1-4-2-9-1"
           cx="115.98515"
           cy="110.4163"
           rx="4.2333336"
           ry="2.1166668" /><ellipse
           style="fill:#efa9a9;fill-opacity:1;stroke:none;stroke-width:0.705553;stroke-linecap:round;stroke-linejoin:round;stroke-miterlimit:4;stroke-dasharray:none"
           id="ellipse9866-5-5-2-5-5-1"
           cx="91.996254"
           cy="110.4163"
           rx="4.2333336"
           ry="2.1166668" /><path
           style="fill:none;stroke:#e77e7e;stroke-width:0.705553;stroke-linecap:round;stroke-linejoin:miter;stroke-miterlimit:4;stroke-dasharray:none;stroke-opacity:1"
           d="m 101.34486,113.50441 c 0,0 0.93664,0.882 2.64584,0.882 1.70919,0 2.64583,-0.882 2.64583,-0.882"
           id="path9870-1-0-8-5-0-2"
           sodipodi:nodetypes="czc" /><path
           style="fill:#468cbf;fill-rule:nonzero;stroke:none;stroke-width:1.41111;stroke-linecap:round;stroke-linejoin:miter;stroke-miterlimit:4;stroke-dasharray:none;stroke-opacity:1"
           d="m 98.353556,92.605698 c 0.0044,-0.161073 0.200392,-0.712155 -0.02795,-1.010096 -0.297696,-0.388428 -1.173781,-0.596856 -2.159013,-0.72461 -0.346692,-0.04496 -0.670809,-0.07718 -1.002813,-0.114906 -0.556914,-0.06328 -1.187416,-0.09751 -1.845254,-0.09523 -0.996196,0.0035 -1.901242,0.08947 -2.591755,0.216477 -0.161177,0.02965 -0.306995,0.06082 -0.437414,0.0926 -0.217694,0.05305 -0.420893,0.119895 -0.601313,0.192477 -0.414355,0.166693 -0.63754,0.332291 -0.756261,0.415658 0.128708,0.02841 0.415429,0.115775 0.811493,0.204285 0.179372,0.04009 0.380923,0.08033 0.589439,0.113118 0.125882,0.0198 0.265556,0.04048 0.419522,0.06272 0.707613,0.102195 1.463476,0.203216 2.433661,0.367714 0.633836,0.107468 1.157766,0.208225 1.684958,0.314626 0.292795,0.05909 0.591106,0.138342 0.882851,0.224979 0.840068,0.24947 1.525338,0.541884 1.897004,0.440847 0.313752,-0.08529 0.580437,-0.587979 0.702849,-0.700664 z"
           id="path9890-0-5-7-0-0-6"
           sodipodi:nodetypes="cc"
           inkscape:original-d="m 98.353556,92.605698 c -2.75497,-1.25312 -7.708033,-1.370507 -9.421777,-1.027624"
           inkscape:path-effect="#path-effect9894-0-0-3-68-6-0" /><path
           style="fill:#468cbf;fill-rule:nonzero;stroke:none;stroke-width:1.41111;stroke-linecap:round;stroke-linejoin:miter;stroke-miterlimit:4;stroke-dasharray:none;stroke-opacity:1"
           d="m 109.62784,92.605698 c 0.12241,0.112685 0.3891,0.61537 0.70285,0.700664 0.37166,0.101037 1.05693,-0.191377 1.897,-0.440847 0.29174,-0.08664 0.59005,-0.165885 0.88285,-0.224979 0.52719,-0.106401 1.05112,-0.207158 1.68496,-0.314626 0.97018,-0.164498 1.72604,-0.265519 2.43366,-0.367714 0.15396,-0.02224 0.29364,-0.04292 0.41952,-0.06272 0.20852,-0.03279 0.41007,-0.07303 0.58944,-0.113118 0.39606,-0.08851 0.68278,-0.175873 0.81149,-0.204285 -0.11872,-0.08337 -0.3419,-0.248965 -0.75626,-0.415658 -0.18042,-0.07258 -0.38362,-0.139424 -0.60131,-0.192477 -0.13042,-0.03178 -0.27624,-0.06296 -0.43742,-0.0926 -0.69051,-0.127004 -1.59556,-0.213018 -2.59175,-0.216477 -0.65784,-0.0023 -1.28834,0.03195 -1.84526,0.09523 -0.332,0.03773 -0.65612,0.06995 -1.00281,0.114906 -0.98523,0.127754 -1.86131,0.336182 -2.15901,0.724611 -0.22834,0.297941 -0.0323,0.849022 -0.0279,1.010095 z"
           id="path9900-8-2-8-6-1-1"
           sodipodi:nodetypes="cc"
           inkscape:original-d="m 109.62784,92.605698 c 2.75496,-1.25312 7.70803,-1.370507 9.42177,-1.027624"
           inkscape:path-effect="#path-effect9904-1-0-6-4-5-4" /><path
           id="ellipse10995-5-7-9-0-6-6"
           style="fill:#468cbf;fill-opacity:1;stroke:none;stroke-width:0.705553;stroke-linecap:round;stroke-linejoin:round;stroke-miterlimit:4;stroke-dasharray:none"
           d="m 103.99072,49.741661 a 11.288889,9.8777779 0 0 0 -11.288884,9.877779 11.288889,9.8777779 0 0 0 2.414667,6.068201 23.98889,27.869446 0 0 0 8.874217,2.045688 23.98889,27.869446 0 0 0 8.87389,-2.045688 11.288889,9.8777779 0 0 0 2.41501,-6.068201 11.288889,9.8777779 0 0 0 -11.2889,-9.877779 z" /><path
           id="path29558-5-2"
           style="fill:#25557b;fill-opacity:1;stroke:none;stroke-width:0.705553;stroke-linecap:round;stroke-linejoin:round;stroke-miterlimit:4;stroke-dasharray:none"
           d="m 103.99071,61.207293 c -3.47,0.009 -6.742504,1.413792 -8.874221,3.809577 0.562344,-0.265184 1.133147,-0.505479 1.71118,-0.720373 2.31606,-0.861007 4.731341,-1.307888 7.163041,-1.325316 3.03291,0.0218 6.03465,0.711571 8.84617,2.032653 -2.7472,-3.117639 -6.70473,-3.753926 -8.84617,-3.796541 z"
           sodipodi:nodetypes="ccsccc" /><path
           id="path9906-5-5-4-6-8-3"
           style="fill:#f9f9f9;fill-opacity:1;stroke:none;stroke-width:0.176389px;stroke-linecap:butt;stroke-linejoin:miter;stroke-opacity:1"
           d="m 103.9907,63.677425 c 2.55372,5.371906 3.64275,17.422973 2.8422,23.274709 4.11507,-0.255463 7.65251,-0.960436 10.52477,-1.082093 0.002,-0.0017 0.005,-0.002 0.007,-0.0033 l -0.0686,-2.452917 C 116.5149,76.972378 111.98246,67.73154 103.99067,63.677329 Z" /><g
           id="g1613-7-3-1-0-4"
           transform="matrix(-0.10583334,0,0,0.10583334,34.98055,35.146186)"
           style="stroke-width:1.66667"><path
             id="path1609-7-7-7-9-1"
             style="fill:#262626;fill-opacity:1;stroke-width:3.33333;stroke-linecap:round;stroke-linejoin:round"
             d="m -744.5284,561.96814 c -31.242,-3e-5 -55.5078,37.36226 -55.5078,71.24023 0,12.6724 3.0023,22.46714 8.3926,29.76563 -3.4383,-6.60483 -5.3203,-14.80198 -5.3203,-24.80469 0,-33.87797 24.2658,-71.24222 55.5078,-71.24219 14.6869,1e-5 24.9381,5.4469 31.6816,14.73633 -6.5325,-12.27644 -17.6229,-19.6953 -34.7539,-19.69531 z" /><path
             id="path1611-6-4-0-1-5"
             style="fill:#ffffff;stroke-width:3.33333;stroke-linecap:round;stroke-linejoin:round"
             d="m -699.0302,625.44091 c 0,33.87797 -14.0129,59.92728 -45.2548,59.92731 -31.242,3e-5 -52.6795,-13.32138 -52.6795,-47.19939 0,-33.878 24.2659,-71.24103 55.5079,-71.241 31.2419,3e-5 42.4264,24.63512 42.4264,58.51308 z"
             sodipodi:nodetypes="sssss" /></g><g
           id="g18358-7-7-2"
           transform="matrix(0.1763889,0,0,0.1763889,239.45738,-141.11112)"><path
             id="path3886-0-9-1-3-4-0"
             style="fill:#262626;fill-opacity:1;stroke-width:2;stroke-linecap:round;stroke-linejoin:round"
             d="m -692.90896,1374.837 c 0,16.1398 -9.74146,31.1237 -20.91201,29.2498 -9.80393,-1.6446 -14.15049,-13.11 -14.15049,-29.2498 0,-16.1397 9.38966,-29.1974 17.27626,-29.1973 7.8866,0 17.78624,13.0576 17.78624,29.1973 z"
             sodipodi:nodetypes="sssss" /><ellipse
             style="fill:#ffffff;fill-opacity:1;stroke-width:1.99999;stroke-linecap:round;stroke-linejoin:round"
             id="path17817-9-8-6-4"
             cx="-196.99501"
             cy="1514.8612"
             rx="9.3441439"
             ry="4.5125465"
             transform="rotate(19.913545)" /><path
             id="path15620-6-5-2"
             style="fill:#2bcdb5;fill-opacity:1;stroke-width:2;stroke-linecap:round;stroke-linejoin:round"
             d="m -710.69531,1366.7363 c -6.34048,-10e-5 -13.64825,8.4428 -16.27149,20.1387 1.78403,9.6069 6.01565,16.0147 13.14649,17.2109 8.63374,1.4484 16.40772,-7.1763 19.49609,-18.6191 -3.01189,-10.9589 -10.28812,-18.7305 -16.37109,-18.7305 z" /><path
             id="path4885-26-1-0-1-6"
             style="fill:#cdf28b;fill-opacity:1;stroke-width:2;stroke-linecap:round;stroke-linejoin:round"
             d="m -710.4402,1374.9428 c -5.70845,-10e-5 -12.20169,6.8432 -15.35441,16.7424 2.19633,6.9145 6.10707,11.4174 11.97364,12.4015 7.64313,1.2821 14.61516,-5.3297 18.25754,-14.8021 -3.52508,-8.5869 -9.64257,-14.3418 -14.87677,-14.3418 z" /><path
             id="path5511-7-4-5-8-4"
             style="fill:#262626;fill-opacity:1;stroke-width:2;stroke-linecap:round;stroke-linejoin:round"
             d="m -701.67451,1374.8899 c 0,8.0699 -4.87076,15.562 -10.45607,14.625 -4.90201,-0.8223 -7.07531,-6.555 -7.07531,-14.625 0,-8.0699 4.69489,-14.5988 8.63821,-14.5988 3.94336,0 8.89317,6.5289 8.89317,14.5988 z"
             sodipodi:nodetypes="sssss" /><circle
             style="fill:#ffffff;fill-opacity:1;stroke-width:2;stroke-linecap:round;stroke-linejoin:round"
             id="path5570-6-5-3-5-5"
             cx="-721.85144"
             cy="1392.136"
             r="6.1200485" /></g><g
           id="g1590-5-3-9-2-4"
           transform="matrix(0.10583334,0,0,0.10583334,173.01813,34.883737)"
           style="stroke-width:1.66667"><path
             id="path1205-3-4-6-8-6-5"
             style="fill:#262626;fill-opacity:1;stroke-width:3.33333;stroke-linecap:round;stroke-linejoin:round"
             d="m -744.5284,561.96814 c -31.242,-3e-5 -55.5078,37.36226 -55.5078,71.24023 0,12.6724 3.0023,22.46714 8.3926,29.76563 -3.4383,-6.60483 -5.3203,-14.80198 -5.3203,-24.80469 0,-33.87797 24.2658,-71.24222 55.5078,-71.24219 14.6869,1e-5 24.9381,5.4469 31.6816,14.73633 -6.5325,-12.27644 -17.6229,-19.6953 -34.7539,-19.69531 z" /><path
             id="path790-8-1-7-1-7-8"
             style="fill:#ffffff;stroke-width:3.33333;stroke-linecap:round;stroke-linejoin:round"
             d="m -699.0302,625.44091 c 0,33.87797 -14.0129,59.92728 -45.2548,59.92731 -31.242,3e-5 -52.6795,-13.32138 -52.6795,-47.19939 0,-33.878 24.2659,-71.24103 55.5079,-71.241 31.2419,3e-5 42.4264,24.63512 42.4264,58.51308 z"
             sodipodi:nodetypes="sssss" /></g><g
           id="g1797-4-6"
           transform="matrix(0.1763889,0,0,0.1763889,239.45739,-231.42224)"><path
             id="path3886-0-9-1-2-0-3-6"
             style="fill:#262626;fill-opacity:1;stroke-width:2;stroke-linecap:round;stroke-linejoin:round"
             d="m -842.99314,1885.3491 c 0,16.1398 9.74146,31.1237 20.91201,29.2498 9.80393,-1.6446 14.15049,-13.11 14.15049,-29.2498 0,-16.1397 -9.38966,-29.1974 -17.27626,-29.1973 -7.8866,0 -17.78624,13.0576 -17.78624,29.1973 z"
             sodipodi:nodetypes="sssss" /><path
             id="path15620-8-9-8-7"
             style="fill:#2bcdb5;fill-opacity:1;stroke-width:2;stroke-linecap:round;stroke-linejoin:round"
             d="m -825.20679,1877.2484 c 6.34048,-10e-5 13.64825,8.4428 16.27149,20.1387 -1.78403,9.6069 -6.01565,16.0147 -13.14649,17.2109 -8.63374,1.4484 -16.40772,-7.1763 -19.49609,-18.6191 3.01189,-10.9589 10.28812,-18.7305 16.37109,-18.7305 z" /><path
             id="path4885-26-1-4-3-9-4"
             style="fill:#cdf28b;fill-opacity:1;stroke-width:2;stroke-linecap:round;stroke-linejoin:round"
             d="m -825.4619,1885.4549 c 5.70845,-10e-5 12.20169,6.8432 15.35441,16.7424 -2.19633,6.9145 -6.10707,11.4174 -11.97364,12.4015 -7.64313,1.2821 -14.61516,-5.3297 -18.25754,-14.8021 3.52508,-8.5869 9.64257,-14.3418 14.87677,-14.3418 z" /><path
             id="path5511-7-4-9-5-6-3"
             style="fill:#262626;fill-opacity:1;stroke-width:2;stroke-linecap:round;stroke-linejoin:round"
             d="m -834.22759,1885.402 c 0,8.0699 4.87076,15.562 10.45607,14.625 4.90201,-0.8223 7.07531,-6.555 7.07531,-14.625 0,-8.0699 -4.69489,-14.5988 -8.63821,-14.5988 -3.94336,0 -8.89317,6.5289 -8.89317,14.5988 z"
             sodipodi:nodetypes="sssss" /><circle
             style="fill:#ffffff;fill-opacity:1;stroke-width:2;stroke-linecap:round;stroke-linejoin:round"
             id="path5570-6-5-4-2-4-0"
             cx="-836.87317"
             cy="1902.6481"
             r="6.1200485" /><ellipse
             style="fill:#ffffff;fill-opacity:1;stroke-width:1.99999;stroke-linecap:round;stroke-linejoin:round"
             id="path17817-8-4-1"
             cx="-131.2579"
             cy="2034.0253"
             rx="9.3441439"
             ry="4.5125465"
             transform="rotate(19.913545)" /></g><path
           id="path3839-0-5"
           style="opacity:0.4;mix-blend-mode:soft-light;fill:#ffffff;fill-opacity:1;stroke-width:0.311745;stroke-linecap:round;stroke-linejoin:round"
           d="m 103.99071,62.971181 c -3.06149,0.01825 -6.108921,0.737561 -8.874221,2.045685 -1.203132,0.409377 -2.605016,0.967635 -3.804435,1.615439 -1.831187,0.967417 -3.530973,2.183915 -5.033272,3.609745 -0.668381,4.762141 5.134814,6.921488 8.79253,7.945054 7.737788,1.73839 16.576678,1.711492 23.600398,-2.42963 1.92228,-1.043662 4.59729,-4.446202 2.2324,-6.238071 -2.35731,-2.037597 -5.14241,-3.564571 -8.10671,-4.515626 -1.39526,-0.702306 -3.20382,-1.292289 -4.85726,-1.623324 -1.29938,-0.262236 -2.62402,-0.399998 -3.94943,-0.409272 z" /><path
           id="path37669-8-9-0"
           style="opacity:0.4;mix-blend-mode:soft-light;fill:#ffffff;fill-opacity:1;stroke-width:0.352777;stroke-linecap:round;stroke-linejoin:round"
           d="m 103.99071,49.741661 a 11.288889,9.8777779 0 0 0 -10.846191,7.153399 11.288889,5.6444448 0 0 0 0.08785,0.16674 11.288889,5.6444448 0 0 1 10.758341,-3.96875 11.288889,5.6444448 0 0 1 10.76938,3.952205 11.288889,5.6444448 0 0 0 0.0796,-0.152611 11.288889,9.8777779 0 0 0 -10.84896,-7.150983 z" /></g></g><text
       xml:space="preserve"
       style="font-style:normal;font-variant:normal;font-weight:300;font-stretch:normal;font-size:14.8167px;line-height:1.25;font-family:'Roboto Condensed';-inkscape-font-specification:'Roboto Condensed,  Light';text-align:start;text-anchor:start;fill:#6d6e71;fill-opacity:1;stroke-width:0.264583"
       x="150.44672"
       y="112.34465"
       id="text3047"><tspan
         sodipodi:role="line"
         style="font-style:normal;font-variant:normal;font-weight:300;font-stretch:normal;font-size:14.8167px;font-family:'Roboto Condensed';-inkscape-font-specification:'Roboto Condensed,  Light';text-align:start;text-anchor:start;fill:#6d6e71;fill-opacity:1;stroke-width:0.264583"
         x="150.44672"
         y="112.34465"
         id="tspan3242">Discord bot</tspan></text><text
       xml:space="preserve"
       style="font-size:12.7px;line-height:1.25;font-family:sans-serif;text-align:center;text-anchor:middle;stroke-width:0.264583"
       x="-168.52846"
       y="89.491188"
       id="text3246"><tspan
         sodipodi:role="line"
         id="tspan3244"
         x="-168.52846"
         y="89.491188"
         style="stroke-width:0.264583" /></text></g></svg>
